<svg xmlns="http://www.w3.org/2000/svg" width="350" height="350" viewBox="0 0 350 350">
  <defs>
    <style>
      .cls-1 {
        fill: #999;
        opacity: 0.5;
      }
      .cls-1, .cls-2 {
        fill-rule: evenodd;
      }
      .cls-2 {
        fill: #ececec;
        opacity: 0.7;
      }
    </style>
  </defs>
  <path class="cls-1" d="M43.906,173.986c0,72.815,58.728,131.844,131.172,131.844a130.173,130.173,0,0,0,80.569-27.8L286.3,308.838l0.462,0.075a173.337,173.337,0,0,1-112.184,41.032C78.161,349.945,0,271.39,0,174.487,0,82.652,70.2,7.308,159.612-.323V43.144L159.963,44A130.558,130.558,0,0,0,43.906,173.986Z"/>
  <path id="Ellipse_1_Kopie" data-name="Ellipse 1 Kopie" class="cls-2" d="M309.2,286.2c-4.628-4.614-27.908-27.822-30.886-30.873A131.265,131.265,0,0,0,191.39,44.139c-0.129-.378-0.263-0.764-0.39-1.139,0.172-25.693,0-43,0-43L160.116-.368c4.77-.393,9.591-0.6,14.462-0.6C271-.971,349.156,77.584,349.156,174.487A175.273,175.273,0,0,1,309.2,286.2Z"/>
</svg>
